<svg xmlns="http://www.w3.org/2000/svg"
     shape-rendering="geometricPrecision"
     viewBox="90 430 840 165">
  <metadata>null</metadata>

<path d="
M 97.946 462.103
C 99.689 449.889 107.704 439.394 120.1 436.371
C 124.429 435.315 129.082 435.542 133.506 435.513
C 140.46 435.467 147.415 435.516 154.37 435.485
C 177.512 435.382 200.66 435.4 223.799 435.444
C 224.016 435.917 223.118 436.399 222.852 436.644
C 221.853 437.565 220.898 438.541 219.929 439.498
C 215.815 443.565 212.291 448.576 207.763 452.175
C 205.985 452.716 203.386 452.111 201.505 452.094
C 197.005 452.054 192.504 452.048 188.004 452.041
C 172.669 452.014 157.325 451.822 142.002 452.012
C 138.226 452.059 134.442 452.038 130.666 452.039
C 127.689 452.039 124.555 451.976 121.846 453.375
C 118.117 455.3 114.757 459.318 113.956 463.483
C 113.363 466.565 113.679 469.992 113.693 473.119
C 113.711 476.913 113.667 480.708 113.686 484.502
C 113.786 505.002 113.728 525.501 113.668 546.001
C 113.643 554.382 114.071 562.844 113.778 571.211
C 114.274 571.473 115.019 571.283 115.564 571.266
C 117.375 571.211 119.193 571.231 121.004 571.231
C 127.005 571.229 133.005 571.215 139.005 571.212
C 159.633 571.202 180.261 571.159 200.889 571.213
C 209.595 571.236 219.848 572.933 225.481 564.582
C 228.211 560.534 227.833 555.657 227.849 550.998
C 227.879 542.664 227.878 534.33 227.862 525.997
C 227.857 523.519 227.877 521.041 227.865 518.564
C 227.86 517.694 227.581 516.353 227.939 515.535
C 228.741 513.697 231.345 511.833 232.754 510.43
C 236.315 506.887 239.762 502.664 243.746 499.615
C 244.329 500.133 243.9 501.319 243.926 502.003
C 244.025 504.608 244.03 507.212 244.073 509.819
C 244.238 519.883 243.94 529.948 243.918 540.01
C 243.888 553.554 245.798 568.325 235.305 578.819
C 224.534 589.59 209.432 587.55 195.503 587.557
C 174.67 587.567 153.837 587.55 133.003 587.555
C 121.541 587.557 109.649 588.463 98.254 587.111
C 97.779 586.589 97.864 585.627 97.831 584.943
C 97.738 582.965 97.75 580.984 97.742 579.004
C 97.707 571.171 97.792 563.336 97.788 555.502
C 97.778 535.001 97.765 514.499 97.783 493.998
C 97.792 483.443 97.12 472.627 97.946 462.103 Z"
opacity="1" fill="rgb(33,108,111)" fill-rule="evenodd" />
<path d="
M 128.399 504.568
C 131.019 500.131 135.89 496.118 139.691 492.675
C 141.057 491.437 142.733 489.288 144.5 488.706
C 148.559 491.602 152.028 495.45 155.543 498.964
C 160.537 503.956 165.567 508.906 170.634 513.823
C 171.135 513.776 171.679 512.928 172.04 512.602
C 173.307 511.456 174.52 510.267 175.713 509.043
C 180.092 504.552 184.563 500.153 188.958 495.678
C 200.957 483.459 213.153 471.414 225.114 459.152
C 228.876 455.295 232.656 451.455 236.497 447.676
C 238.28 445.922 240.181 443.589 242.48 442.539
C 247.102 445.292 251.232 450.094 255.017 453.897
C 256.304 455.19 258.732 457.053 259.047 458.926
C 258.605 461.336 254.962 463.872 253.289 465.477
C 248.041 470.507 242.959 475.724 237.839 480.885
C 222.609 496.237 207.299 511.512 192.038 526.833
C 188.139 530.748 184.153 534.594 180.411 538.659
C 177.955 541.328 175.079 544.909 171.786 546.566
C 170.628 546.719 169.072 545.487 168.177 544.833
C 165.307 542.735 162.78 540.128 160.263 537.631
C 153.342 530.765 146.373 523.939 139.412 517.113
C 135.732 513.504 130.774 509.706 128.343 505.095
C 128.362 504.919 128.381 504.744 128.399 504.568 Z"
opacity="1" fill="rgb(39,167,156)" fill-rule="evenodd" />
<path d="
M 293.969 462.115
C 294.179 460.515 294.154 458.822 294.141 457.209
C 302.157 456.503 310.456 457.045 318.505 457.052
C 331.606 457.065 345.636 456.117 356.95 463.911
C 375.504 476.693 372.327 509.107 353.658 520.012
C 341.197 527.291 327.942 524.613 314.345 525.927
C 313.954 526.765 314.154 528.057 314.155 528.997
C 314.158 531.165 314.124 533.332 314.117 535.499
C 314.089 543.577 314.292 551.676 314.076 559.749
C 313.83 559.892 313.059 559.761 312.789 559.758
C 311.359 559.738 309.929 559.772 308.499 559.769
C 303.739 559.76 298.71 559.286 293.982 559.867
C 293.795 557.155 294.085 554.403 294.016 551.682
C 293.671 538.196 294 524.691 294.036 511.207
C 294.079 494.908 293.025 478.393 293.969 462.115 Z
M 314.013 476.128
C 313.24 486.766 314.842 497.576 314.124 508.212
C 320.28 508.61 327.002 508.679 333.14 508.004
C 337.523 507.522 341.857 505.856 344.904 502.559
C 350.221 496.806 350.19 485.299 344.901 479.597
C 339.945 474.255 332.174 474.723 325.499 474.72
C 322.702 474.719 319.905 474.726 317.108 474.743
C 316.202 474.748 314.727 474.531 314.047 475.169
C 314.077 475.892 314.105 475.573 314.013 476.128 Z"
opacity="1" fill="rgb(39,168,157)" fill-rule="evenodd" />
<path d="
M 375.471 521.116
C 375.815 509.014 380.164 497.105 389.987 489.445
C 404.198 478.363 426.761 478.078 440.637 489.963
C 445.219 493.887 448.471 498.937 450.697 504.494
C 453.036 510.336 453.993 516.591 453.819 522.866
C 453.65 528.96 452.333 535.145 449.611 540.632
C 438.691 562.649 407.007 568.502 388.396 552.497
C 379.57 544.907 375.146 532.566 375.471 521.116 Z
M 395.952 516.112
C 394.855 524.147 395.881 534.235 402.2 540.046
C 409.093 546.384 420.96 545.966 427.655 539.54
C 431.161 536.174 432.873 531.132 433.575 526.444
C 434.848 517.934 433.085 507.468 426.047 501.826
C 419.412 496.506 408.851 496.476 402.567 502.489
C 398.785 506.108 396.653 510.975 395.952 516.112 Z"
opacity="1" fill="rgb(38,168,157)" fill-rule="evenodd" />
<path d="
M 466.312 452.919
C 472.792 452.879 479.301 452.753 485.778 452.833
C 486.007 460.532 485.648 468.293 485.665 476
C 485.708 495.333 485.722 514.666 485.708 533.999
C 485.702 542.579 485.297 551.258 485.684 559.826
C 483.762 560.186 481.46 559.913 479.501 559.915
C 475.157 559.921 470.822 559.796 466.479 559.885
C 465.919 559.444 466.166 558.676 466.169 558.007
C 466.177 556.506 466.197 555.005 466.202 553.504
C 466.226 547.003 466.216 540.503 466.218 534.002
C 466.222 516.001 466.276 498.001 466.256 480
C 466.25 473.833 466.253 467.666 466.278 461.499
C 466.29 458.694 465.963 455.696 466.312 452.919 Z"
opacity="1" fill="rgb(39,169,156)" fill-rule="evenodd" />
<path d="
M 502.623 453.164
C 505.024 452.704 507.569 452.932 510.006 452.923
C 513.932 452.908 517.878 452.814 521.798 452.983
C 522.395 455.479 521.906 458.445 521.916 461.007
C 521.937 466.324 521.953 471.64 521.967 476.957
C 522.015 495.464 522.159 513.985 522.159 532.5
C 522.159 538.668 522.157 544.835 522.197 551.003
C 522.215 553.753 521.688 557.072 522.239 559.754
C 517.545 559.451 512.708 559.785 507.998 559.759
C 506.267 559.749 504.263 560.093 502.585 559.684
C 501.851 524.2 502.889 488.653 502.623 453.164 Z"
opacity="1" fill="rgb(40,168,157)" fill-rule="evenodd" />
<path d="
M 539.981 465.119
C 540.307 462.511 539.994 459.827 540.16 457.204
C 552.102 457.178 564.065 456.919 576.012 457.167
C 584.325 457.34 592.861 457.402 600.55 460.997
C 604.522 462.854 608.049 465.437 610.565 469.076
C 616.165 477.178 615.945 489.378 610.369 497.443
C 607.507 501.584 603.362 503.445 599.04 505.624
C 599.394 506.343 600.327 506.214 601.05 506.374
C 602.964 506.796 604.889 507.575 606.613 508.488
C 611.553 511.106 615.462 515.272 617.342 520.568
C 618.775 524.607 619.167 529.003 618.821 533.259
C 618.581 536.202 618.055 539.072 616.966 541.829
C 616.197 543.775 615.15 545.563 613.944 547.264
C 603.61 561.835 582.522 559.773 567 559.809
C 562.666 559.819 558.333 559.826 554 559.821
C 549.37 559.816 544.613 559.478 539.998 559.839
C 539.175 556.965 539.847 552.986 539.86 549.998
C 539.889 542.997 539.886 535.997 539.906 528.996
C 539.944 515.83 539.993 502.661 539.944 489.495
C 539.914 481.399 539.578 473.204 539.981 465.119 Z
M 560.272 474.803
C 560.407 482.721 560.474 490.755 560.255 498.671
C 565.717 498.603 571.179 498.873 576.642 498.703
C 580.212 498.593 583.788 498.499 587.105 497.028
C 595.286 493.4 597.262 481.089 588.745 476.501
C 585.295 474.643 581.258 474.659 577.443 474.596
C 571.728 474.501 565.979 474.49 560.272 474.803 Z
M 560.241 515.744
C 560.362 524.726 560.547 533.866 560.159 542.839
C 562.627 543.382 565.697 542.908 568.24 542.967
C 575.936 543.145 585.474 544.209 592.306 540.052
C 599.397 535.737 599.687 523.42 592.94 518.667
C 589.052 515.928 584.492 515.793 579.918 515.676
C 573.357 515.509 566.797 515.482 560.241 515.744 Z"
opacity="1" fill="rgb(29,68,81)" fill-rule="evenodd" />
<path d="
M 627.96 518.107
C 628.859 506.187 634.219 495.574 643.667 488.185
C 657.917 477.041 681.225 478.876 694.226 490.876
C 703.951 499.853 707.217 513.307 706.21 526.115
C 705.819 531.097 704.457 536.176 702.206 540.644
C 691.086 562.717 659.335 568.781 640.799 552.089
C 636.989 548.658 633.646 544.103 631.499 539.45
C 628.517 532.987 627.427 525.161 627.96 518.107 Z
M 648.419 516.102
C 647.343 524.224 648.685 534.319 655.064 540.084
C 662.197 546.532 673.493 545.972 680.154 539.112
C 683.674 535.486 685.475 530.668 686.151 525.746
C 687.276 517.56 685.697 507.408 679.03 501.851
C 672.149 496.116 660.686 496.439 654.342 502.827
C 650.795 506.399 649.069 511.198 648.419 516.102 Z"
opacity="1" fill="rgb(27,68,80)" fill-rule="evenodd" />
<path d="
M 714.915 535.092
C 715.371 532.67 716.037 530.413 717.217 528.235
C 725.887 512.234 746.929 514.569 761.978 510.979
C 762.541 510.215 762.142 508.017 762.055 507.076
C 761.612 502.291 759.156 498.849 754.43 497.536
C 748.02 495.755 740.131 497.582 734.414 500.689
C 732.528 501.714 731 503.449 729.168 504.408
C 725.397 501.243 722.55 496.743 718.098 494.458
C 720.735 490.749 725.191 487.718 729.225 485.771
C 731.93 484.466 734.789 483.453 737.694 482.693
C 751.12 479.18 771.167 480.246 778.358 494.077
C 782.69 502.409 781.4 512.933 781.382 522.012
C 781.362 531.306 780.92 540.732 781.465 550.011
C 781.604 552.378 781.835 554.784 782.291 557.112
C 782.444 557.893 783.24 559.014 783.251 559.704
C 779.022 559.523 774.741 559.931 770.501 559.829
C 768.952 559.792 766.799 560.078 765.397 559.354
C 763.57 556.983 763.202 553.653 762.558 550.822
C 756.234 556.71 749.766 560.926 740.883 561.555
C 728.762 562.413 716.685 555.429 715.01 542.707
C 714.681 540.207 714.555 537.596 714.915 535.092 Z
M 734.36 534.571
C 734.101 535.881 734.039 537.234 734.229 538.559
C 735.582 547.991 747.713 547.451 754.189 544.02
C 756.408 542.845 758.923 540.858 760.279 538.722
C 762.812 534.731 762.404 528.432 762.174 523.876
C 756.255 525.579 749.789 525.51 743.787 527.18
C 739.609 528.342 735.835 530.298 734.36 534.571 Z"
opacity="1" fill="rgb(27,67,80)" fill-rule="evenodd" />
<path d="
M 796.994 493.616
C 797.367 490.191 797.131 486.635 797.22 483.192
C 799.841 482.599 802.833 483.075 805.506 483.076
C 808.876 483.077 812.766 482.54 816.069 483.208
C 815.922 485.93 816.098 488.757 816.117 491.494
C 816.127 492.875 815.864 494.507 816.2 495.84
C 816.904 495.766 817.564 493.544 817.876 492.955
C 819.139 490.576 821.13 488.379 823.287 486.774
C 829.973 481.801 836.661 481.359 844.695 482.214
C 844.8 484.304 843.943 486.778 843.584 488.852
C 842.906 492.77 842.401 496.961 842.356 500.939
C 841.046 501.291 838.681 500.318 837.239 500.236
C 833.367 500.018 829.442 500.53 826.039 502.488
C 821.942 504.845 817.746 509.663 816.791 514.454
C 816.105 517.899 816.406 521.692 816.411 525.184
C 816.421 532.96 816.388 540.736 816.386 548.512
C 816.386 552.159 816.859 556.15 816.388 559.76
C 810.053 559.59 803.305 559.273 796.996 559.84
C 796.411 558.827 796.935 556.215 796.936 554.995
C 796.937 550.495 796.928 545.995 796.935 541.495
C 796.962 525.555 796.514 509.541 796.994 493.616 Z"
opacity="1" fill="rgb(28,68,81)" fill-rule="evenodd" />
<path d="
M 848.457 517.109
C 849.511 509.419 850.887 502.258 855.198 495.607
C 863.464 482.854 880.005 477.367 894.21 483.112
C 898.84 484.985 901.501 488.083 905.014 491.336
C 905.268 490.468 904.898 489.454 904.886 488.563
C 904.861 486.709 904.878 484.852 904.874 482.997
C 904.862 476.331 904.928 469.665 904.924 462.999
C 904.923 459.934 904.263 456.018 905.162 453.082
C 911.547 452.928 917.971 452.92 924.359 453.101
C 925.031 455.891 924.39 459.62 924.395 462.509
C 924.408 469.343 924.403 476.177 924.396 483.011
C 924.378 499.511 924.383 516.01 924.385 532.51
C 924.386 541.5 923.815 550.802 924.603 559.747
C 923.182 560.262 920.539 559.757 918.998 559.75
C 914.576 559.731 910.156 559.747 905.739 559.617
C 905.51 556.329 905.735 552.774 905.217 549.538
C 902.178 553.144 899.083 556.569 894.776 558.709
C 881.987 565.063 866.047 560.896 857.2 549.93
C 849.854 540.823 847.649 528.55 848.457 517.109 Z
M 868.475 516.117
C 867.568 524.535 868.711 535.133 875.618 540.955
C 877.227 542.312 879.14 543.32 881.139 543.967
C 893.532 547.976 903.7 538.158 904.997 526.284
C 905.923 517.81 905.667 508.353 898.792 502.246
C 893.304 497.37 883.2 496.065 877.075 500.442
C 871.977 504.084 869.136 509.987 868.475 516.117 Z"
opacity="1" fill="rgb(28,68,81)" fill-rule="evenodd" />

</svg>