<svg xmlns="http://www.w3.org/2000/svg" width="32" height="32" viewBox="97 435 150 155">
    <path d="
M 97.946 462.103
C 99.689 449.889 107.704 439.394 120.1 436.371
C 124.429 435.315 129.082 435.542 133.506 435.513
C 140.46 435.467 147.415 435.516 154.37 435.485
C 177.512 435.382 200.66 435.4 223.799 435.444
C 224.016 435.917 223.118 436.399 222.852 436.644
C 221.853 437.565 220.898 438.541 219.929 439.498
C 215.815 443.565 212.291 448.576 207.763 452.175
C 205.985 452.716 203.386 452.111 201.505 452.094
C 197.005 452.054 192.504 452.048 188.004 452.041
C 172.669 452.014 157.325 451.822 142.002 452.012
C 138.226 452.059 134.442 452.038 130.666 452.039
C 127.689 452.039 124.555 451.976 121.846 453.375
C 118.117 455.3 114.757 459.318 113.956 463.483
C 113.363 466.565 113.679 469.992 113.693 473.119
C 113.711 476.913 113.667 480.708 113.686 484.502
C 113.786 505.002 113.728 525.501 113.668 546.001
C 113.643 554.382 114.071 562.844 113.778 571.211
C 114.274 571.473 115.019 571.283 115.564 571.266
C 117.375 571.211 119.193 571.231 121.004 571.231
C 127.005 571.229 133.005 571.215 139.005 571.212
C 159.633 571.202 180.261 571.159 200.889 571.213
C 209.595 571.236 219.848 572.933 225.481 564.582
C 228.211 560.534 227.833 555.657 227.849 550.998
C 227.879 542.664 227.878 534.33 227.862 525.997
C 227.857 523.519 227.877 521.041 227.865 518.564
C 227.86 517.694 227.581 516.353 227.939 515.535
C 228.741 513.697 231.345 511.833 232.754 510.43
C 236.315 506.887 239.762 502.664 243.746 499.615
C 244.329 500.133 243.9 501.319 243.926 502.003
C 244.025 504.608 244.03 507.212 244.073 509.819
C 244.238 519.883 243.94 529.948 243.918 540.01
C 243.888 553.554 245.798 568.325 235.305 578.819
C 224.534 589.59 209.432 587.55 195.503 587.557
C 174.67 587.567 153.837 587.55 133.003 587.555
C 121.541 587.557 109.649 588.463 98.254 587.111
C 97.779 586.589 97.864 585.627 97.831 584.943
C 97.738 582.965 97.75 580.984 97.742 579.004
C 97.707 571.171 97.792 563.336 97.788 555.502
C 97.778 535.001 97.765 514.499 97.783 493.998
C 97.792 483.443 97.12 472.627 97.946 462.103 Z"
          fill="rgb(33,108,111)" fill-rule="evenodd" />
    <path d="
M 128.399 504.568
C 131.019 500.131 135.89 496.118 139.691 492.675
C 141.057 491.437 142.733 489.288 144.5 488.706
C 148.559 491.602 152.028 495.45 155.543 498.964
C 160.537 503.956 165.567 508.906 170.634 513.823
C 171.135 513.776 171.679 512.928 172.04 512.602
C 173.307 511.456 174.52 510.267 175.713 509.043
C 180.092 504.552 184.563 500.153 188.958 495.678
C 200.957 483.459 213.153 471.414 225.114 459.152
C 228.876 455.295 232.656 451.455 236.497 447.676
C 238.28 445.922 240.181 443.589 242.48 442.539
C 247.102 445.292 251.232 450.094 255.017 453.897
C 256.304 455.19 258.732 457.053 259.047 458.926
C 258.605 461.336 254.962 463.872 253.289 465.477
C 248.041 470.507 242.959 475.724 237.839 480.885
C 222.609 496.237 207.299 511.512 192.038 526.833
C 188.139 530.748 184.153 534.594 180.411 538.659
C 177.955 541.328 175.079 544.909 171.786 546.566
C 170.628 546.719 169.072 545.487 168.177 544.833
C 165.307 542.735 162.78 540.128 160.263 537.631
C 153.342 530.765 146.373 523.939 139.412 517.113
C 135.732 513.504 130.774 509.706 128.343 505.095
C 128.362 504.919 128.381 504.744 128.399 504.568 Z"
          fill="rgb(39,167,156)" fill-rule="evenodd" />
</svg>